<svg width="14" height="14" viewBox="0 0 14 14" fill="none" xmlns="http://www.w3.org/2000/svg">
<path fill-rule="evenodd" clip-rule="evenodd" d="M13.0085 7.00065C13.0085 3.68706 10.3133 0.991851 6.99967 0.991851C3.68674 0.991851 0.990874 3.68706 0.990874 7.00065C0.990874 10.3142 3.68674 13.0095 6.99967 13.0095C10.3133 13.0095 13.0085 10.3142 13.0085 7.00065ZM13.6663 7.00065C13.6663 10.6767 10.6757 13.6673 6.99967 13.6673C3.3236 13.6673 0.333008 10.6767 0.333008 7.00065C0.333008 3.32458 3.3236 0.333984 6.99967 0.333984C10.6757 0.333984 13.6663 3.32458 13.6663 7.00065ZM9.95341 7.66732C9.95341 7.84889 9.80671 7.99625 9.62448 7.99625H7.00164H6.99967C6.8181 7.99625 6.67074 7.84955 6.67074 7.66732V2.97024C6.67074 2.78868 6.8181 2.64132 6.99967 2.64132C7.18189 2.64132 7.32859 2.78868 7.32859 2.97024V7.3384H9.62448C9.80671 7.3384 9.95341 7.48576 9.95341 7.66732Z" fill="white"/>
</svg>
